<mxfile host="app.diagrams.net" modified="2021-04-27T08:37:33.966Z" agent="5.0 (Windows NT 10.0; Win64; x64) AppleWebKit/537.36 (KHTML, like Gecko) Chrome/90.0.4430.72 Safari/537.36" etag="BY5o_ikegTLeSeX8MLW_" version="14.6.6" type="github">
  <diagram name="Page-1" id="74e2e168-ea6b-b213-b513-2b3c1d86103e">
    <mxGraphModel dx="1544" dy="780" grid="1" gridSize="10" guides="1" tooltips="1" connect="1" arrows="1" fold="1" page="1" pageScale="1" pageWidth="1100" pageHeight="850" math="0" shadow="0">
      <root>
        <mxCell id="0" />
        <mxCell id="1" parent="0" />
        <mxCell id="77e6c97f196da883-1" value="Unity 主要渲染过程泳道图" style="swimlane;html=1;childLayout=stackLayout;startSize=20;shadow=0;labelBackgroundColor=none;strokeWidth=1;fontFamily=Helvetica;fontSize=11;align=center;sketch=1;" parent="1" vertex="1">
          <mxGeometry x="320" y="20" width="860" height="960" as="geometry" />
        </mxCell>
        <mxCell id="77e6c97f196da883-2" value="RepaintControllerShared.cpp" style="swimlane;html=1;startSize=20;fontSize=11;fontFamily=Helvetica;sketch=1;" parent="77e6c97f196da883-1" vertex="1">
          <mxGeometry y="20" width="190" height="940" as="geometry" />
        </mxCell>
        <mxCell id="77e6c97f196da883-8" value="target RT 标记为 backbuffer并且垂直翻转" style="whiteSpace=wrap;html=1;shadow=0;labelBackgroundColor=none;strokeWidth=1;fontFamily=Helvetica;fontSize=11;align=center;labelPosition=center;verticalLabelPosition=middle;verticalAlign=middle;sketch=1;" parent="77e6c97f196da883-2" vertex="1">
          <mxGeometry x="30" y="40" width="100" height="60" as="geometry" />
        </mxCell>
        <mxCell id="HJUtytIFOYKy9jO6P9ns-2" value="backbuffer 设置为当前活跃的" style="whiteSpace=wrap;html=1;shadow=0;fontFamily=Helvetica;fontSize=11;strokeWidth=1;align=center;labelPosition=center;verticalLabelPosition=middle;verticalAlign=middle;sketch=1;" vertex="1" parent="77e6c97f196da883-2">
          <mxGeometry x="20" y="130" width="120" height="60" as="geometry" />
        </mxCell>
        <mxCell id="HJUtytIFOYKy9jO6P9ns-3" value="" style="edgeStyle=orthogonalEdgeStyle;orthogonalLoop=1;jettySize=auto;html=1;align=center;labelPosition=center;verticalLabelPosition=middle;verticalAlign=middle;fontSize=11;fontFamily=Helvetica;sketch=1;curved=1;" edge="1" parent="77e6c97f196da883-2" source="77e6c97f196da883-8" target="HJUtytIFOYKy9jO6P9ns-2">
          <mxGeometry relative="1" as="geometry" />
        </mxCell>
        <mxCell id="HJUtytIFOYKy9jO6P9ns-9" value="&lt;span style=&quot;font-size: 11px;&quot;&gt;OnBeforeRender 事件&lt;/span&gt;" style="whiteSpace=wrap;html=1;shadow=0;fontFamily=Helvetica;fontSize=11;strokeWidth=1;sketch=1;" vertex="1" parent="77e6c97f196da883-2">
          <mxGeometry x="20" y="220" width="120" height="60" as="geometry" />
        </mxCell>
        <mxCell id="HJUtytIFOYKy9jO6P9ns-11" value="屏幕空间相机" style="whiteSpace=wrap;html=1;shadow=0;fontFamily=Helvetica;fontSize=11;strokeWidth=1;sketch=1;" vertex="1" parent="77e6c97f196da883-2">
          <mxGeometry x="20" y="310" width="120" height="60" as="geometry" />
        </mxCell>
        <mxCell id="HJUtytIFOYKy9jO6P9ns-12" value="" style="edgeStyle=orthogonalEdgeStyle;orthogonalLoop=1;jettySize=auto;html=1;align=center;fontSize=11;fontFamily=Helvetica;sketch=1;curved=1;" edge="1" parent="77e6c97f196da883-2" source="HJUtytIFOYKy9jO6P9ns-9" target="HJUtytIFOYKy9jO6P9ns-11">
          <mxGeometry relative="1" as="geometry" />
        </mxCell>
        <mxCell id="HJUtytIFOYKy9jO6P9ns-36" value="&lt;span style=&quot;font-size: 11px&quot;&gt;RenderOverlays 绘制 GUI&lt;/span&gt;" style="whiteSpace=wrap;html=1;shadow=0;fontSize=11;strokeWidth=1;sketch=1;" vertex="1" parent="77e6c97f196da883-2">
          <mxGeometry x="35" y="720" width="120" height="60" as="geometry" />
        </mxCell>
        <mxCell id="HJUtytIFOYKy9jO6P9ns-38" value="&lt;span style=&quot;font-size: 11px&quot;&gt;PlayerSendFrameComplete 回调 OnEndOfFrame&lt;/span&gt;" style="whiteSpace=wrap;html=1;shadow=0;fontSize=11;strokeWidth=1;sketch=1;" vertex="1" parent="77e6c97f196da883-2">
          <mxGeometry x="17.5" y="820" width="155" height="60" as="geometry" />
        </mxCell>
        <mxCell id="HJUtytIFOYKy9jO6P9ns-39" value="" style="edgeStyle=orthogonalEdgeStyle;orthogonalLoop=1;jettySize=auto;html=1;fontFamily=Helvetica;fontSize=11;align=center;sketch=1;curved=1;" edge="1" parent="77e6c97f196da883-2" source="HJUtytIFOYKy9jO6P9ns-36" target="HJUtytIFOYKy9jO6P9ns-38">
          <mxGeometry relative="1" as="geometry" />
        </mxCell>
        <mxCell id="77e6c97f196da883-3" value="RenderManager.cpp" style="swimlane;html=1;startSize=20;fontSize=11;fontFamily=Helvetica;sketch=1;" parent="77e6c97f196da883-1" vertex="1">
          <mxGeometry x="190" y="20" width="160" height="940" as="geometry" />
        </mxCell>
        <mxCell id="HJUtytIFOYKy9jO6P9ns-13" value="RenderCameras 的FindCameraStacks找出所有相机堆栈，进入Loop逐一渲染相机" style="whiteSpace=wrap;html=1;shadow=0;fontFamily=Helvetica;fontSize=11;strokeWidth=1;sketch=1;" vertex="1" parent="77e6c97f196da883-3">
          <mxGeometry x="20" y="310" width="130" height="60" as="geometry" />
        </mxCell>
        <mxCell id="77e6c97f196da883-6" value="Camera.cpp" style="swimlane;html=1;startSize=20;fontSize=11;fontFamily=Helvetica;sketch=1;" parent="77e6c97f196da883-1" vertex="1">
          <mxGeometry x="350" y="20" width="160" height="940" as="geometry" />
        </mxCell>
        <mxCell id="HJUtytIFOYKy9jO6P9ns-15" value="&lt;span style=&quot;font-size: 11px;&quot;&gt;CustomRender&lt;/span&gt;" style="whiteSpace=wrap;html=1;shadow=0;fontFamily=Helvetica;fontSize=11;strokeWidth=1;sketch=1;" vertex="1" parent="77e6c97f196da883-6">
          <mxGeometry x="20" y="310" width="120" height="60" as="geometry" />
        </mxCell>
        <mxCell id="HJUtytIFOYKy9jO6P9ns-17" value="&lt;span style=&quot;font-size: 11px&quot;&gt;OnPreRender 事件&amp;nbsp;&lt;/span&gt;" style="whiteSpace=wrap;html=1;shadow=0;fontSize=11;strokeWidth=1;sketch=1;" vertex="1" parent="77e6c97f196da883-6">
          <mxGeometry x="20" y="400" width="120" height="60" as="geometry" />
        </mxCell>
        <mxCell id="HJUtytIFOYKy9jO6P9ns-18" value="" style="edgeStyle=orthogonalEdgeStyle;orthogonalLoop=1;jettySize=auto;html=1;fontFamily=Helvetica;fontSize=11;align=center;sketch=1;curved=1;" edge="1" parent="77e6c97f196da883-6" source="HJUtytIFOYKy9jO6P9ns-15" target="HJUtytIFOYKy9jO6P9ns-17">
          <mxGeometry relative="1" as="geometry" />
        </mxCell>
        <mxCell id="HJUtytIFOYKy9jO6P9ns-19" value="根据 camerStack 的m_TargetType 获取 Target RenderTexture" style="whiteSpace=wrap;html=1;shadow=0;fontSize=11;strokeWidth=1;sketch=1;" vertex="1" parent="77e6c97f196da883-6">
          <mxGeometry x="20" y="480" width="120" height="60" as="geometry" />
        </mxCell>
        <mxCell id="HJUtytIFOYKy9jO6P9ns-20" value="" style="edgeStyle=orthogonalEdgeStyle;orthogonalLoop=1;jettySize=auto;html=1;fontFamily=Helvetica;fontSize=11;align=center;sketch=1;curved=1;" edge="1" parent="77e6c97f196da883-6" source="HJUtytIFOYKy9jO6P9ns-17" target="HJUtytIFOYKy9jO6P9ns-19">
          <mxGeometry relative="1" as="geometry" />
        </mxCell>
        <mxCell id="HJUtytIFOYKy9jO6P9ns-25" value="&lt;span style=&quot;font-size: 11px&quot;&gt;MultiCustomRender（中间还做了很多操作）&lt;/span&gt;" style="whiteSpace=wrap;html=1;shadow=0;fontSize=11;strokeWidth=1;sketch=1;" vertex="1" parent="77e6c97f196da883-6">
          <mxGeometry x="20" y="560" width="120" height="60" as="geometry" />
        </mxCell>
        <mxCell id="HJUtytIFOYKy9jO6P9ns-26" value="" style="edgeStyle=orthogonalEdgeStyle;orthogonalLoop=1;jettySize=auto;html=1;fontFamily=Helvetica;fontSize=11;align=center;sketch=1;curved=1;" edge="1" parent="77e6c97f196da883-6" source="HJUtytIFOYKy9jO6P9ns-19" target="HJUtytIFOYKy9jO6P9ns-25">
          <mxGeometry relative="1" as="geometry" />
        </mxCell>
        <mxCell id="HJUtytIFOYKy9jO6P9ns-32" value="&lt;span&gt;OnPostRender 事件&amp;nbsp;&lt;/span&gt;" style="whiteSpace=wrap;html=1;shadow=0;fontSize=11;strokeWidth=1;sketch=1;" vertex="1" parent="77e6c97f196da883-6">
          <mxGeometry x="20" y="650" width="120" height="40" as="geometry" />
        </mxCell>
        <mxCell id="HJUtytIFOYKy9jO6P9ns-34" value="执行 Image Effect，这里会有一次 ImageFilters::Blit 操作，导致当前的活跃 RT 变成 backBuffer" style="whiteSpace=wrap;html=1;shadow=0;fontSize=11;strokeWidth=1;sketch=1;" vertex="1" parent="77e6c97f196da883-6">
          <mxGeometry x="20" y="710" width="120" height="80" as="geometry" />
        </mxCell>
        <mxCell id="HJUtytIFOYKy9jO6P9ns-35" value="" style="edgeStyle=orthogonalEdgeStyle;orthogonalLoop=1;jettySize=auto;html=1;fontFamily=Helvetica;fontSize=11;align=center;sketch=1;curved=1;" edge="1" parent="77e6c97f196da883-6" source="HJUtytIFOYKy9jO6P9ns-32" target="HJUtytIFOYKy9jO6P9ns-34">
          <mxGeometry relative="1" as="geometry" />
        </mxCell>
        <mxCell id="HJUtytIFOYKy9jO6P9ns-5" value="" style="edgeStyle=orthogonalEdgeStyle;orthogonalLoop=1;jettySize=auto;html=1;align=center;labelPosition=center;verticalLabelPosition=middle;verticalAlign=middle;fontSize=11;fontFamily=Helvetica;sketch=1;curved=1;" edge="1" parent="77e6c97f196da883-1" source="HJUtytIFOYKy9jO6P9ns-2" target="HJUtytIFOYKy9jO6P9ns-4">
          <mxGeometry relative="1" as="geometry" />
        </mxCell>
        <mxCell id="HJUtytIFOYKy9jO6P9ns-10" value="" style="edgeStyle=orthogonalEdgeStyle;orthogonalLoop=1;jettySize=auto;html=1;align=center;fontSize=11;fontFamily=Helvetica;sketch=1;curved=1;" edge="1" parent="77e6c97f196da883-1" source="HJUtytIFOYKy9jO6P9ns-6" target="HJUtytIFOYKy9jO6P9ns-9">
          <mxGeometry relative="1" as="geometry">
            <Array as="points">
              <mxPoint x="780" y="270" />
            </Array>
          </mxGeometry>
        </mxCell>
        <mxCell id="HJUtytIFOYKy9jO6P9ns-14" value="" style="edgeStyle=orthogonalEdgeStyle;orthogonalLoop=1;jettySize=auto;html=1;align=center;fontSize=11;fontFamily=Helvetica;sketch=1;curved=1;" edge="1" parent="77e6c97f196da883-1" source="HJUtytIFOYKy9jO6P9ns-11" target="HJUtytIFOYKy9jO6P9ns-13">
          <mxGeometry relative="1" as="geometry" />
        </mxCell>
        <mxCell id="HJUtytIFOYKy9jO6P9ns-16" value="" style="edgeStyle=orthogonalEdgeStyle;orthogonalLoop=1;jettySize=auto;html=1;align=center;fontSize=11;fontFamily=Helvetica;sketch=1;curved=1;" edge="1" parent="77e6c97f196da883-1" source="HJUtytIFOYKy9jO6P9ns-13" target="HJUtytIFOYKy9jO6P9ns-15">
          <mxGeometry relative="1" as="geometry" />
        </mxCell>
        <mxCell id="77e6c97f196da883-4" value="RenderTexture.cpp" style="swimlane;html=1;startSize=20;fontSize=11;fontFamily=Helvetica;align=left;sketch=1;" parent="77e6c97f196da883-1" vertex="1">
          <mxGeometry x="510" y="20" width="350" height="940" as="geometry">
            <mxRectangle x="350" y="20" width="30" height="730" as="alternateBounds" />
          </mxGeometry>
        </mxCell>
        <mxCell id="HJUtytIFOYKy9jO6P9ns-4" value="&lt;span style=&quot;font-size: 11px;&quot;&gt;SetActive&lt;/span&gt;" style="whiteSpace=wrap;html=1;shadow=0;fontFamily=Helvetica;fontSize=11;strokeWidth=1;align=center;labelPosition=center;verticalLabelPosition=middle;verticalAlign=middle;sketch=1;" vertex="1" parent="77e6c97f196da883-4">
          <mxGeometry x="20" y="130" width="120" height="60" as="geometry" />
        </mxCell>
        <mxCell id="77e6c97f196da883-5" value="GfxDevice.cpp" style="swimlane;html=1;startSize=20;fontSize=11;fontFamily=Helvetica;sketch=1;" parent="77e6c97f196da883-4" vertex="1">
          <mxGeometry x="170" width="180" height="940" as="geometry" />
        </mxCell>
        <mxCell id="HJUtytIFOYKy9jO6P9ns-6" value="&lt;span style=&quot;font-size: 11px;&quot;&gt;SetRenderTargets 的SetRenderTargetsImpl&lt;/span&gt;" style="whiteSpace=wrap;html=1;shadow=0;fontFamily=Helvetica;fontSize=11;strokeWidth=1;align=center;labelPosition=center;verticalLabelPosition=middle;verticalAlign=middle;sketch=1;" vertex="1" parent="77e6c97f196da883-5">
          <mxGeometry x="15" y="130" width="150" height="60" as="geometry" />
        </mxCell>
        <mxCell id="HJUtytIFOYKy9jO6P9ns-29" value="&lt;span&gt;SetRenderTargets 的SetRenderTargetsImpl&lt;/span&gt;" style="whiteSpace=wrap;html=1;shadow=0;fontSize=11;strokeWidth=1;sketch=1;" vertex="1" parent="77e6c97f196da883-5">
          <mxGeometry x="20" y="560" width="140" height="60" as="geometry" />
        </mxCell>
        <mxCell id="HJUtytIFOYKy9jO6P9ns-7" value="" style="edgeStyle=orthogonalEdgeStyle;orthogonalLoop=1;jettySize=auto;html=1;align=center;labelPosition=center;verticalLabelPosition=middle;verticalAlign=middle;fontSize=11;fontFamily=Helvetica;sketch=1;curved=1;" edge="1" parent="77e6c97f196da883-4" source="HJUtytIFOYKy9jO6P9ns-4" target="HJUtytIFOYKy9jO6P9ns-6">
          <mxGeometry relative="1" as="geometry" />
        </mxCell>
        <mxCell id="HJUtytIFOYKy9jO6P9ns-30" value="" style="edgeStyle=orthogonalEdgeStyle;orthogonalLoop=1;jettySize=auto;html=1;fontFamily=Helvetica;fontSize=11;align=center;sketch=1;curved=1;" edge="1" parent="77e6c97f196da883-4" source="HJUtytIFOYKy9jO6P9ns-27" target="HJUtytIFOYKy9jO6P9ns-29">
          <mxGeometry relative="1" as="geometry" />
        </mxCell>
        <mxCell id="HJUtytIFOYKy9jO6P9ns-27" value="&lt;span&gt;SetActive 设置当前的活跃的 RT&lt;/span&gt;" style="whiteSpace=wrap;html=1;shadow=0;fontSize=11;strokeWidth=1;sketch=1;" vertex="1" parent="77e6c97f196da883-4">
          <mxGeometry x="30" y="560" width="120" height="60" as="geometry" />
        </mxCell>
        <mxCell id="HJUtytIFOYKy9jO6P9ns-28" value="" style="edgeStyle=orthogonalEdgeStyle;orthogonalLoop=1;jettySize=auto;html=1;fontFamily=Helvetica;fontSize=11;align=center;sketch=1;curved=1;" edge="1" parent="77e6c97f196da883-1" source="HJUtytIFOYKy9jO6P9ns-25" target="HJUtytIFOYKy9jO6P9ns-27">
          <mxGeometry relative="1" as="geometry" />
        </mxCell>
        <mxCell id="HJUtytIFOYKy9jO6P9ns-33" value="" style="edgeStyle=orthogonalEdgeStyle;orthogonalLoop=1;jettySize=auto;html=1;fontFamily=Helvetica;fontSize=11;align=center;sketch=1;curved=1;" edge="1" parent="77e6c97f196da883-1" source="HJUtytIFOYKy9jO6P9ns-29" target="HJUtytIFOYKy9jO6P9ns-32">
          <mxGeometry relative="1" as="geometry">
            <Array as="points">
              <mxPoint x="770" y="690" />
            </Array>
          </mxGeometry>
        </mxCell>
        <mxCell id="HJUtytIFOYKy9jO6P9ns-37" value="" style="edgeStyle=orthogonalEdgeStyle;orthogonalLoop=1;jettySize=auto;html=1;fontFamily=Helvetica;fontSize=11;align=center;sketch=1;curved=1;" edge="1" parent="77e6c97f196da883-1" source="HJUtytIFOYKy9jO6P9ns-34" target="HJUtytIFOYKy9jO6P9ns-36">
          <mxGeometry relative="1" as="geometry" />
        </mxCell>
      </root>
    </mxGraphModel>
  </diagram>
</mxfile>
